<svg xmlns="http://www.w3.org/2000/svg" viewBox="0 0 24 24" id="Awward"><path fill="#423a30" d="M22.975 6.342c-.022-.066-.556-1.63-2.121-3.195s-3.13-2.099-3.195-2.121a.496.496 0 0 0-.563.181l-6.174 8.547c-.509.246-.92.657-1.166 1.166l-8.548 6.174a.502.502 0 0 0-.182.563c.022.066.556 1.63 2.121 3.195s3.13 2.099 3.195 2.121a.5.5 0 0 0 .563-.18l5.528-7.653 2.714 2.714A.5.5 0 0 0 16 17.5V16h1.5a.5.5 0 0 0 .354-.854l-2.714-2.714 7.653-5.527a.5.5 0 0 0 .182-.563z" class="color303c42 svgShape"></path><circle cx="12" cy="12" r="1.5" fill="#d38e2f" class="colord32f2f svgShape"></circle><path fill="#ffffff" d="M11.039 12.539c0-.827.673-1.5 1.5-1.5.275 0 .53.08.751.209A1.494 1.494 0 0 0 10.5 12c0 .552.303 1.03.749 1.291a1.483 1.483 0 0 1-.21-.752z" opacity=".2" class="colorffffff svgShape"></path><path fill="#ffbf66" d="M6.325 21.889a8.638 8.638 0 0 1-2.472-1.742 8.674 8.674 0 0 1-1.741-2.472l7.42-5.359c.05.387.178.75.385 1.061l-1.77 1.77a.5.5 0 0 0 .707.707l1.77-1.77c.311.206.673.335 1.061.385l-5.36 7.42z" class="colorfff4d4 svgShape"></path><path fill="#d38e2f" d="M16.293 15H15.5a.5.5 0 0 0-.5.5v.793l-1.974-1.974.053-.074c.509-.246.92-.657 1.166-1.166l.074-.053L16.293 15z" class="colord32f2f svgShape"></path><path fill="#ffbf66" d="M14.468 11.684a2.48 2.48 0 0 0-.385-1.061l1.77-1.77a.5.5 0 0 0-.707-.707l-1.77 1.77a2.488 2.488 0 0 0-1.061-.385l5.359-7.421a8.638 8.638 0 0 1 2.472 1.742 8.674 8.674 0 0 1 1.741 2.472l-7.419 5.36z" class="colorfff4d4 svgShape"></path><path d="m10.856 14.2-5.124 7.095c-.445-.201-1.28-.664-2.157-1.46.095.104.174.207.279.312a8.603 8.603 0 0 0 2.472 1.742l5.359-7.421a2.514 2.514 0 0 1-.829-.268zm9.29-10.346c-.106-.106-.209-.186-.314-.282.793.874 1.259 1.714 1.462 2.16L14.2 10.856c.131.256.23.531.268.829l7.42-5.359a8.669 8.669 0 0 0-1.742-2.472z" opacity=".1" fill="#000000" class="color000000 svgShape"></path><linearGradient id="a" x1="5.029" x2="18.971" y1="8.75" y2="15.251" gradientUnits="userSpaceOnUse"><stop offset="0" stop-color="#ffffff" stop-opacity=".2" class="stopColorffffff svgShape"></stop><stop offset="1" stop-color="#ffffff" stop-opacity="0" class="stopColorffffff svgShape"></stop></linearGradient><path fill="url(#a)" d="M22.975 6.342c-.022-.066-.556-1.63-2.121-3.195s-3.13-2.099-3.195-2.121a.496.496 0 0 0-.563.181l-6.174 8.547c-.509.246-.92.657-1.166 1.166l-8.548 6.174a.502.502 0 0 0-.182.563c.022.066.556 1.63 2.121 3.195s3.13 2.099 3.195 2.121a.5.5 0 0 0 .563-.18l5.528-7.653 2.714 2.714A.5.5 0 0 0 16 17.5V16h1.5a.5.5 0 0 0 .354-.854l-2.714-2.714 7.653-5.527a.5.5 0 0 0 .182-.563z"></path></svg>