<svg xmlns="http://www.w3.org/2000/svg" viewBox="0 0 24 24" id="Awward"><path fill="none" stroke="#ffbf66" stroke-linecap="round" stroke-linejoin="round" d="M13.5 18.5H5c-.8 0-1.5-.7-1.5-1.5V2c0-.8.7-1.5 1.5-1.5h7.5l4 4v8.2" class="colorStroke303c42 svgStroke"></path><path fill="none" stroke="#ffbf66" stroke-linecap="round" stroke-linejoin="round" d="M12.5.5V3c0 .8.7 1.5 1.5 1.5h2.5M13.5 17.7v5.8l2-2 2 2v-5.8" class="colorStroke303c42 svgStroke"></path><circle cx="15.5" cy="15.5" r="3" fill="none" stroke="#ffbf66" stroke-linecap="round" stroke-linejoin="round" class="colorStroke303c42 svgStroke"></circle><path fill="none" stroke="#ffbf66" stroke-linecap="round" stroke-linejoin="round" d="M6.5 5.5h4M6.5 8.5h7M6.5 15.5c1-.7 1.7-1.8 2-3 0-.6-.4-1-1-1-.6.2-1 .8-1 1.5 0 .9 1.3 2.5 2 2.5s1.2-2 1.5-2 0 2 .5 2" class="colorStroke303c42 svgStroke"></path></svg>