<svg xmlns="http://www.w3.org/2000/svg" data-name="Layer 1" viewBox="0 0 32 32" id="milestone"><rect width="2.35" height="3.797" x="9.589" y="5.781" fill="#ffd9aa"></rect><path fill="#ffd9aa" d="M13.51,4.1a2.757,2.757,0,1,1-.25-1.13v.01A2.626,2.626,0,0,1,13.51,4.1Z"></path><path fill="#57565c" d="M13.26,2.97v.01l-3.67.73V5.28H8.29a2.735,2.735,0,0,1,2.47-3.92A2.723,2.723,0,0,1,13.26,2.97Z"></path><path fill="#416fb3" d="M10.443,17.73l1.5,1.645-.666,5.342a.482.482,0,0,0-.008.1.819.819,0,0,0,1.614.2l1.285-5.068A1.6,1.6,0,0,0,14.109,19l-1.386-3.541H8.806Z"></path><path fill="#416fb3" d="M7.377,25.641h0a.8.8,0,0,1-.791-.912l1.436-9.271h3.133l-3,9.552A.8.8,0,0,1,7.377,25.641Z"></path><path fill="#fbde53" d="M17.42,11.93a1.174,1.174,0,0,1-1.17,1.18H14.29l-1.57-1.18v3.53H8.02V9.98A1.566,1.566,0,0,1,9.59,8.41h1.8a1.451,1.451,0,0,1,.55.1,1.816,1.816,0,0,1,.43.24l2.51,2.01h1.37A1.165,1.165,0,0,1,17.42,11.93Z"></path><path fill="#ffd9aa" d="M17.42,11.93a1.174,1.174,0,0,1-1.17,1.18H15.5V10.76h.75A1.165,1.165,0,0,1,17.42,11.93Z"></path><polygon fill="#d9d8da" points="23.5 20 23.5 22.813 15.5 22.813 15.5 25.625 5.5 25.625 5.5 27.844 .5 27.844 .5 31.5 7.5 31.5 15.5 31.5 23.5 31.5 31.5 31.5 31.5 27.844 31.5 20 23.5 20"></polygon><polygon fill="#ed456a" points="27.5 4.5 31.5 2.5 27.5 .5 27.5 4.5"></polygon><path d="M31.5,19.5H28V4.809l3.724-1.862c.008,0,.012-.011.02-.015a.473.473,0,0,0,.042-.033.485.485,0,0,0,.136-.148c.007-.011.02-.016.026-.028s0-.023.009-.034a.487.487,0,0,0,.027-.1.489.489,0,0,0,.012-.091.489.489,0,0,0-.012-.091.487.487,0,0,0-.027-.1c0-.011,0-.023-.009-.034a.478.478,0,0,0-.036-.046.417.417,0,0,0-.143-.143.457.457,0,0,0-.045-.035l-4-2-.015,0a.493.493,0,0,0-.1-.028A.508.508,0,0,0,27.518,0c-.006,0-.012,0-.018,0a.473.473,0,0,0-.084.017.5.5,0,0,0-.088.018.48.48,0,0,0-.093.052.48.48,0,0,0-.07.047A.492.492,0,0,0,27.1.222a.467.467,0,0,0-.043.054l0,.015a.5.5,0,0,0-.026.1.5.5,0,0,0-.019.1L27,.5v19H23.5a.5.5,0,0,0-.5.5v2.313H15.5a.5.5,0,0,0-.5.5v2.313H13.368l1.279-5.049a2.094,2.094,0,0,0-.073-1.26l-1.352-3.453v-2.43l.767.575a.5.5,0,0,0,.3.1h1.958a1.675,1.675,0,0,0,0-3.35H15.053l-2.373-1.9a2.051,2.051,0,0,0-.24-.161V6.861a3.193,3.193,0,0,0,1.246-4.142c-.005-.008-.008-.017-.014-.025A3.231,3.231,0,1,0,7.836,5.468l0,.008A3.247,3.247,0,0,0,9.089,6.861V7.977a2.065,2.065,0,0,0-1.566,2V15.42l-1.432,9.24a1.3,1.3,0,0,0,.025.466H5.5a.5.5,0,0,0-.5.5v1.719H.5a.5.5,0,0,0-.5.5V31.5a.5.5,0,0,0,.5.5h31a.5.5,0,0,0,.5-.5V20A.5.5,0,0,0,31.5,19.5ZM28,1.309,30.382,2.5,28,3.691Zm-12,9.95h.247a.675.675,0,1,1,0,1.35H16ZM13.642,19.18a1.081,1.081,0,0,1,.037.651L12.395,24.9a.323.323,0,0,1-.625-.118l.666-5.342a.5.5,0,0,0-.126-.4l-1.3-1.433.517-1.647h.859Zm-2.814,5.945H8.646l2.013-6.414.756.83-.632,5.078a.933.933,0,0,0-.018.2A1.27,1.27,0,0,0,10.828,25.125ZM13.006,4.1A2.231,2.231,0,0,1,9.29,5.775h.3a.5.5,0,0,0,.5-.5V4.119l2.842-.563A2.215,2.215,0,0,1,13.006,4.1ZM11.439,7.269v.644c-.017,0-.033,0-.05,0h-1.3v-.64a3.157,3.157,0,0,0,1.351,0Zm-2.8-2.493A2.208,2.208,0,0,1,8.522,4.1a2.232,2.232,0,0,1,3.922-1.468l-2.953.585a.5.5,0,0,0-.4.49V4.775Zm-.115,5.2A1.068,1.068,0,0,1,9.589,8.909h1.8a1.069,1.069,0,0,1,.666.234l2.509,2.007a.5.5,0,0,0,.313.109H15v1.349h-.544l-3-2.25a.5.5,0,1,0-.6.8L12.247,12.2a.482.482,0,0,0-.025.123v2.633h-3.7Zm-.071,5.983h2.023L7.669,24.9c-.055.254-.446.218-.518.135a.3.3,0,0,1-.071-.233ZM31,31H1V28.344H5.5a.5.5,0,0,0,.5-.5V26.125H7.223a1.286,1.286,0,0,0,.154.017c.033,0,.063-.014.1-.017h4.534c.029,0,.053.017.082.017s.064-.014.1-.017H15.5a.5.5,0,0,0,.5-.5V23.313h7.5a.5.5,0,0,0,.5-.5V20.5h7Z"></path></svg>